<svg id="Layer_1" enable-background="new 0 0 511.987 511.987" height="512" viewBox="0 0 511.987 511.987" width="512" xmlns="http://www.w3.org/2000/svg"><g><circle cx="255.948" cy="362.487" r="25"/><path d="m451.994 212.987h-392.093c-8.284 0-15 6.716-15 15 0 7.813 5.975 14.224 13.604 14.93 9.087 52.526 31.729 168.734 37.392 202.684 6.417 38.467 39.379 66.387 78.377 66.387h163.273c39.021 0 71.986-27.938 78.385-66.43 5.734-34.493 28.369-150.569 37.441-202.64 7.637-.697 13.621-7.112 13.621-14.93 0-8.285-6.716-15.001-15-15.001zm-196.046 204.5c-30.327 0-55-24.673-55-55s24.673-55 55-55 55 24.673 55 55-24.673 55-55 55z"/><path d="m469.674 35.521c-9.686-5.591-20.709-7.213-31.052-5.218-3.44-9.951-10.359-18.69-20.044-24.282-21.488-12.407-49.064-5.018-61.471 16.471-9.619 16.66-7.247 37.212 4.438 51.314l-12.1 20.958 77.977 44.941 12.065-20.897c18.056 3.066 37.041-5.155 46.658-21.814 12.407-21.49 5.018-49.066-16.471-61.473z"/><path d="m344.965 182.987h71.323l6.572-11.383c-.458-.206-.912-.429-1.357-.685l-94.856-54.669-12.703 22.002c-5.385-.162-10.8.052-16.222.598 17.758 11.916 33.705 26.827 47.243 44.137z"/><path d="m95.699 182.987h209.014c-10.386-10.062-21.856-18.731-34.196-25.726-23.368-13.245-48.232-19.744-72.474-19.009l-16.108-27.9-96.171 55.426z"/><path d="m72.5 118.807 8.66 14.999 77.977-44.94-8.694-15.059c11.684-14.103 14.056-34.654 4.438-51.314-12.407-21.49-39.983-28.881-61.472-16.472-9.684 5.592-16.603 14.33-20.043 24.282-10.342-1.995-21.367-.374-31.051 5.218-21.49 12.407-28.879 39.983-16.473 61.472 9.619 16.66 28.601 24.887 46.658 21.814z"/></g></svg>