<?xml version="1.0" encoding="iso-8859-1"?>
<!-- Generator: Adobe Illustrator 18.0.0, SVG Export Plug-In . SVG Version: 6.00 Build 0)  -->
<!DOCTYPE svg PUBLIC "-//W3C//DTD SVG 1.1//EN" "http://www.w3.org/Graphics/SVG/1.1/DTD/svg11.dtd">
<svg version="1.1" id="Capa_1" xmlns="http://www.w3.org/2000/svg" xmlns:xlink="http://www.w3.org/1999/xlink" x="0px" y="0px"
	 viewBox="0 0 458 458" style="enable-background:new 0 0 458 458;" xml:space="preserve">
<g>
	<path d="M350.066,434.173l14.962-22.214c3.078-4.558,5.597-12.787,5.597-18.287V154.276
		c-26.647,23.286-63.001,49.456-112.603,77.682c-89.183,50.751-138.556,103.609-164.27,139.016
		c-2.267,3.121-4.381,6.156-6.377,9.115v13.583c0,5.5,2.519,13.729,5.597,18.287l14.961,22.215V449c0,4.95,4.05,9,9,9h224.133
		c4.95,0,9-4.05,9-9V434.173z"/>
	<path d="M195.89,220.374C321.849,126.84,354.332,58.416,361.86,37.156l-11.794-14.809V9c0-4.95-4.05-9-9-9H116.934
		c-4.95,0-9,4.05-9,9v13.346L93.604,40.339c-3.426,4.303-6.229,12.323-6.229,17.823V284.11
		C114.734,273.393,150.429,254.132,195.89,220.374z"/>
</g>
<g>
</g>
<g>
</g>
<g>
</g>
<g>
</g>
<g>
</g>
<g>
</g>
<g>
</g>
<g>
</g>
<g>
</g>
<g>
</g>
<g>
</g>
<g>
</g>
<g>
</g>
<g>
</g>
<g>
</g>
</svg>
