<svg id="Layer_1" enable-background="new 0 0 512.101 512.101" height="512" viewBox="0 0 512.101 512.101" width="512" xmlns="http://www.w3.org/2000/svg"><g><path d="m327.884 0h-143.381c-91.801 0-168.109 67.601-181.752 155.639-.919 5.929 3.636 11.293 9.635 11.293h487.614c6 0 10.554-5.364 9.635-11.293-13.643-88.038-89.951-155.639-181.751-155.639zm-135.758 63.76c-6.635 6.635-17.393 6.635-24.028 0s-6.635-17.393 0-24.028 17.393-6.635 24.028 0c6.636 6.635 6.636 17.393 0 24.028zm76.461 58.645c-6.635 6.635-17.393 6.635-24.028 0s-6.635-17.393 0-24.028 17.393-6.635 24.028 0c6.636 6.635 6.636 17.393 0 24.028zm76.461-58.645c-6.635 6.635-17.393 6.635-24.029 0-6.635-6.635-6.635-17.393 0-24.028s17.393-6.635 24.029 0 6.636 17.393 0 24.028z"/><path d="m26.727 363.197v34.795h454.116v-34.795h-309.861c-11.447 9.404-25.665 14.515-40.679 14.515-15.369 0-29.511-5.448-40.591-14.515z"/><path d="m97.697 512.101h318.44c43.17 0 79.852-28.315 92.451-67.348 2.036-6.309-2.648-12.779-9.277-12.779h-484.787c-6.63 0-11.314 6.47-9.277 12.779 12.599 39.032 49.28 67.348 92.45 67.348z"/><path d="m31.258 233.07h29.256c21.617 0 39.277 17.586 39.368 39.202l.174 41.338c.07 16.608 13.639 30.12 30.247 30.12 8.104 0 15.715-3.163 21.433-8.905 5.718-5.741 8.847-13.367 8.813-21.47l-.17-40.753c-.045-10.545 4.029-20.47 11.47-27.943 7.442-7.474 17.35-11.59 27.897-11.59h281.097c.288 0 .571.018.858.022v-32.179h-454.974v32.333c1.499-.103 3.006-.175 4.531-.175z"/><path d="m480.843 329.215c17.139 0 31.082-13.943 31.082-31.082s-13.943-31.082-31.082-31.082h-281.097c-1.947 0-3.228.993-3.817 1.586-.59.592-1.577 1.876-1.569 3.822l.17 40.754c.023 5.468-.633 10.834-1.928 16.002z"/><path d="m68.029 329.215c-1.256-4.953-1.932-10.131-1.955-15.461l-.174-41.338c-.012-2.958-2.429-5.365-5.387-5.365h-29.255c-17.139 0-31.082 13.943-31.082 31.082s13.943 31.082 31.082 31.082z"/></g></svg>