<svg width="32" height="32" viewBox="0 0 32 32" fill="currentColor" xmlns="http://www.w3.org/2000/svg">
  <path d="M15.9997 22.6654C19.6816 22.6654 22.6663 19.6806 22.6663 15.9987C22.6663 12.3168 19.6816 9.33203 15.9997 9.33203C12.3178 9.33203 9.33301 12.3168 9.33301 15.9987C9.33301 19.6806 12.3178 22.6654 15.9997 22.6654Z" />
  <path d="M30.6667 14.6667H29.2653C28.6387 8.37733 23.6227 3.36133 17.3333 2.73467V1.33333C17.3333 0.597333 16.7373 0 16 0C15.2627 0 14.6667 0.597333 14.6667 1.33333V2.73467C8.37733 3.36133 3.36133 8.37733 2.73467 14.6667H1.33333C0.596 14.6667 0 15.264 0 16C0 16.736 0.596 17.3333 1.33333 17.3333H2.73467C3.36267 23.6227 8.37733 28.6387 14.6667 29.2653V30.6667C14.6667 31.4027 15.2627 32 16 32C16.7373 32 17.3333 31.4027 17.3333 30.6667V29.2653C23.6227 28.6373 28.6387 23.6227 29.2653 17.3333H30.6667C31.404 17.3333 32 16.736 32 16C32 15.264 31.404 14.6667 30.6667 14.6667ZM17.3147 26.5773C17.2667 25.8853 16.7053 25.3333 16 25.3333C15.2947 25.3333 14.7333 25.8853 14.6853 26.5773C9.856 25.98 6.02133 22.1453 5.424 17.316C6.116 17.2667 6.66667 16.704 6.66667 16C6.66667 15.296 6.116 14.7333 5.42267 14.6853C6.02 9.856 9.85467 6.02133 14.684 5.424C14.7333 6.11467 15.2947 6.66667 16 6.66667C16.7053 6.66667 17.2667 6.11467 17.3147 5.42267C22.144 6.02 25.9787 9.85467 26.576 14.684C25.884 14.7333 25.3333 15.296 25.3333 16C25.3333 16.704 25.884 17.2667 26.5773 17.3147C25.9787 22.1453 22.1453 25.9787 17.3147 26.5773Z" />
</svg>