<svg width="16" height="16" viewBox="0 0 16 16" fill="currentColor" xmlns="http://www.w3.org/2000/svg">
  <path d="M7.99996 0C4.95997 0 2.49634 2.46432 2.49634 5.5043C2.49634 7.82162 5.69535 13.1614 7.21537 15.568C7.38571 15.8371 7.68233 16 8.00051 16C8.31882 15.9993 8.61482 15.8365 8.78464 15.5675C10.3052 13.1603 13.5037 7.82159 13.5037 5.50427C13.5036 2.46432 11.04 0 7.99996 0ZM7.99996 8.86467C6.28074 8.86467 4.88699 7.47112 4.88699 5.75167C4.88699 4.03242 6.28071 2.63871 7.99996 2.63871C9.71921 2.63871 11.1129 4.03239 11.1129 5.75167C11.1129 7.47112 9.71924 8.86467 7.99996 8.86467Z" />
</svg>