<svg width="32" height="32" viewBox="0 0 32 32" fill="currentColor" xmlns="http://www.w3.org/2000/svg">
  <path d="M31.609 29.7237L22.5091 20.6238C24.2718 18.4465 25.3331 15.6798 25.3331 12.6666C25.3331 5.68263 19.6504 0 12.6665 0C5.68257 0 0 5.68257 0 12.6665C0 19.6504 5.68263 25.3331 12.6666 25.3331C15.6798 25.3331 18.4465 24.2718 20.6238 22.5091L29.7237 31.609C29.9837 31.869 30.325 31.9997 30.6664 31.9997C31.0078 31.9997 31.3491 31.869 31.6091 31.609C32.1304 31.0877 32.1304 30.245 31.609 29.7237ZM12.6666 22.6664C7.15193 22.6664 2.66666 18.1811 2.66666 12.6665C2.66666 7.15187 7.15193 2.6666 12.6666 2.6666C18.1812 2.6666 22.6665 7.15187 22.6665 12.6665C22.6665 18.1811 18.1811 22.6664 12.6666 22.6664Z" />
</svg>