<svg width="23" height="23" viewBox="0 0 23 23" fill="currentColor" xmlns="http://www.w3.org/2000/svg">
  <path d="M11.5016 0C8.21584 0 5.52991 2.68593 5.52991 5.97166C5.52991 9.2574 8.21584 11.9433 11.5016 11.9433C14.7873 11.9433 17.4732 9.2574 17.4732 5.97166C17.4732 2.68593 14.7873 0 11.5016 0Z" />
  <path d="M21.7499 16.7154C21.5934 16.3242 21.3848 15.9592 21.1501 15.6202C19.9506 13.8469 18.0992 12.6734 16.013 12.3866C15.7522 12.3605 15.4654 12.4126 15.2567 12.5691C14.1615 13.3775 12.8577 13.7947 11.5016 13.7947C10.1456 13.7947 8.84175 13.3775 7.74651 12.5691C7.53787 12.4126 7.25102 12.3344 6.99027 12.3866C4.9041 12.6734 3.02656 13.8469 1.8531 15.6202C1.61841 15.9592 1.40978 16.3503 1.25335 16.7154C1.17513 16.8719 1.20119 17.0544 1.2794 17.2109C1.48804 17.576 1.74879 17.9411 1.98348 18.254C2.34854 18.7495 2.73971 19.1927 3.18304 19.61C3.54811 19.975 3.96533 20.314 4.38261 20.6531C6.44267 22.1916 8.92002 23 11.4756 23C14.0311 23 16.5085 22.1916 18.5685 20.6531C18.9858 20.3401 19.403 19.975 19.7681 19.61C20.1853 19.1927 20.6026 18.7494 20.9677 18.254C21.2284 17.915 21.4632 17.576 21.6717 17.2109C21.8021 17.0544 21.8281 16.8718 21.7499 16.7154Z" />
</svg>